<svg id="Layer_1" enable-background="new 0 0 512.454 512.454" height="512" viewBox="0 0 512.454 512.454" width="512" fill="#ffffff" xmlns="http://www.w3.org/2000/svg"><g><path d="m497.32 482.24h-128.797v-199.116h32.304v45.6c0 3.83 1.465 7.515 4.095 10.299l40.515 42.899c2.827 2.994 6.762 4.694 10.88 4.701h.025c4.108 0 8.038-1.686 10.87-4.664l40.792-42.899c2.651-2.789 4.13-6.489 4.13-10.336v-266.503c0-8.284-6.716-15-15-15h-81.307c-8.284 0-15 6.716-15 15v45.6h-32.304v-92.821c0-8.284-6.716-15-15-15h-338.389c-8.284 0-15 6.716-15 15v482.24c0 8.284 6.716 15 15 15h57.3c.791.129 1.597.213 2.424.213s1.633-.085 2.424-.213h106.602c.149.004.295.022.445.022s.296-.018.445-.022h312.546c8.284 0 15-6.716 15-15s-6.716-15-15-15zm-66.493-405.019h51.307v245.51l-25.755 27.085-25.552-27.055zm-30 60.6v115.303h-32.304v-115.303zm-370.693-107.821h308.39v452.24h-29.724v-124.035c0-8.284-6.716-15-15-15h-109.104c-.123-.003-.243-.019-.367-.019s-.244.016-.367.019h-109.104c-8.284 0-15 6.716-15 15v124.035h-29.724zm169.195 343.205h79.471v109.035h-79.471zm-30 109.035h-79.471v-109.035h79.471z"/><path d="m84.933 163.195h67.854c8.284 0 15-6.716 15-15v-67.853c0-8.284-6.716-15-15-15h-67.854c-8.284 0-15 6.716-15 15v67.853c0 8.284 6.716 15 15 15zm15-67.853h37.854v37.853h-37.854z"/><path d="m215.87 163.195h67.854c8.284 0 15-6.716 15-15v-67.853c0-8.284-6.716-15-15-15h-67.854c-8.284 0-15 6.716-15 15v67.853c0 8.284 6.716 15 15 15zm15-67.853h37.854v37.853h-37.854z"/><path d="m84.933 293.108h67.854c8.284 0 15-6.716 15-15v-67.853c0-8.284-6.716-15-15-15h-67.854c-8.284 0-15 6.716-15 15v67.853c0 8.285 6.716 15 15 15zm15-67.853h37.854v37.853h-37.854z"/><path d="m215.87 293.108h67.854c8.284 0 15-6.716 15-15v-67.853c0-8.284-6.716-15-15-15h-67.854c-8.284 0-15 6.716-15 15v67.853c0 8.285 6.716 15 15 15zm15-67.853h37.854v37.853h-37.854z"/></g></svg>
