<svg xmlns="http://www.w3.org/2000/svg" width="22" height="17" viewBox="0 0 22 17">
    <g fill="none" fill-rule="evenodd" opacity="1">
        <g fill="#FFF" fill-rule="nonzero">
            <path d="M31.803 389.069l1.996.998v.806c0 .289.255.522.566.522.313 0 .566-.233.566-.522v-.24l1.05.525c.084.042.178.063.27.063.09 0 .183-.02.267-.063l4.18-2.089c.183-.09.297-.266.297-.458s-.114-.368-.297-.46l-4.179-2.088c-.168-.084-.37-.084-.538 0l-4.179 2.089c-.181.091-.296.267-.296.459.001.191.115.367.297.458zm4.448 1.036l-.792-.397 2.812-1.584.972.486-2.992 1.495zm.001-2.99l.869.435-2.813 1.584-1.046-.523 2.99-1.495zm10.453 4.401l-4.178-2.089c-.17-.084-.37-.084-.54 0l-4.178 2.09c-.182.09-.297.267-.297.458s.115.368.297.459l1.996.998v.806c0 .288.254.522.566.522.312 0 .565-.234.565-.522v-.24l.755.377v3.57l-1.166-.582v-1.733c0-.191-.115-.367-.296-.458l-4.179-2.088c-.168-.085-.37-.085-.539 0l-4.179 2.088c-.182.09-.296.267-.296.458v2.226l-.442.218v-3.579l3.6-1.798c.181-.092.296-.268.296-.46 0-.191-.115-.367-.297-.458l-4.178-2.09c-.17-.083-.37-.083-.54 0l-4.18 2.09c-.181.09-.295.267-.295.458v4.757c0 .191.114.368.296.459l4.179 2.089c.084.042.176.063.269.063.092 0 .182-.02.265-.061l1.026-.505v1.35c0 .19.114.367.296.458l4.178 2.089c.084.043.177.064.27.064.093 0 .185-.021.269-.064l4.18-2.089c.182-.091.296-.267.296-.458v-1.838l1.461.73c.084.042.177.063.269.063.093 0 .186-.021.269-.063l4.18-2.09c.183-.09.297-.266.297-.458v-4.757c.002-.193-.112-.369-.295-.46zm-16.961 2.214l-.792-.396 2.814-1.584.97.485-2.992 1.495zm.001-2.99l.869.436-2.813 1.584-1.047-.524 2.991-1.495zm-3.613 2.373l1.162.58v.806c0 .288.253.522.566.522.311 0 .564-.234.564-.522v-.24l1.038.518v3.57l-3.33-1.665v-3.569zm9.648 4.011l-.793-.396 2.814-1.585.971.486-2.992 1.495zm0-2.988l.87.434-2.814 1.584-1.047-.524 2.991-1.494zm-3.612 2.37l1.16.58v.806c0 .288.254.522.567.522.312 0 .566-.234.566-.522v-.24l.754.378v3.57l-3.047-1.524v-3.57zm10.087-3.036l-.79-.397 2.813-1.584.97.486-2.993 1.495zm.002-2.99l.868.434-2.813 1.584-1.046-.523 2.99-1.495z" transform="translate(-25 -386)"/>
        </g>
    </g>
</svg>
