<svg xmlns="http://www.w3.org/2000/svg" width="19" height="16" viewBox="0 0 19 16">
    <g fill="none" fill-rule="evenodd">
        <g fill="#FFF" fill-rule="nonzero">
            <path d="M42.637 179l2.127 5.218h-1.937v1.702c1.83.558 3.173 2.341 3.173 4.45 0 2.553-1.97 4.63-4.39 4.63-1.765 0-3.29-1.106-3.987-2.696h-8.686v-8.086H27L29.128 179h13.509zm-1.026 7.913c-1.807 0-3.277 1.55-3.277 3.456s1.47 3.457 3.277 3.457c1.806 0 3.276-1.55 3.276-3.457 0-1.905-1.47-3.456-3.276-3.456zm1.343 1.93l.787.83-2.5 2.638-1.761-1.859.787-.83.974 1.028 1.713-1.807zm-7.628-6.405l-.726 1.78h-4.55v6.912h5.276v-8.692zm1.113 0v8.692h.842c-.04-.248-.06-.502-.06-.76 0-2.554 1.97-4.631 4.39-4.631l.103.001v-1.522h-4.55l-.725-1.78zm-3.772 5.996v1.175h-1.113v-1.175h1.113zm9.237-8.26h-5.176l1.17 2.87h5.176l-1.17-2.87zm-6.867 0H29.86l-1.17 2.87h5.176l1.17-2.87z" transform="translate(-27 -179)"/>
        </g>
    </g>
</svg>
