<svg xmlns="http://www.w3.org/2000/svg" width="16" height="16" viewBox="0 0 16 16">
    <g fill="none" fill-rule="evenodd" opacity="1">
        <g fill="#FFF" fill-rule="nonzero">
            <path d="M35.303 338.04c.118-.05.251-.054.372-.007l8 3c.003 0 .004.003.007.004.083.032.152.088.208.161.012.016.02.032.031.05.016.026.036.046.047.075.019.051.022.102.025.153 0 .008.007.014.007.023v9c0 .208-.129.395-.324.468l-7.981 2.993h-.001l-.018.007c-.057.021-.116.032-.176.032-.069 0-.135-.014-.196-.04h-.001l-7-3c-.184-.079-.303-.26-.303-.46v-9c0-.067.013-.133.04-.197.008-.019.023-.03.033-.048.012-.02.024-.036.038-.054.048-.063.106-.114.175-.147.007-.003.01-.01.017-.014zM43 342.22l-2 .75v3.16c0 .207-.129.393-.324.467l-2 .75c-.057.021-.117.032-.176.032-.101 0-.2-.03-.285-.089-.134-.094-.215-.247-.215-.41v-2.785l-2 .75v7.932l7-2.625v-7.932zm-14 .038v7.911l6 2.571v-7.91l-6-2.572zm1.04 6.906c.108-.254.403-.373.655-.265l2 .85c.255.107.373.401.265.655-.081.191-.266.305-.46.305-.065 0-.132-.013-.195-.04l-2-.85c-.255-.107-.373-.4-.265-.655zm9.96-5.819l-1 .375v2.437l1-.375v-2.437zm-4.488-4.306l-5.742 2.46 5.742 2.461 1.617-.605-1.819-.75c-.188-.078-.31-.26-.31-.463 0-.2.12-.385.305-.463l1.961-.833c.135-.074.297-.08.439-.017l2.806 1.257 1.565-.587-6.564-2.46zm1.988 2.794l-.708.301 1.71.705.678-.254-1.68-.752z" transform="translate(-28 -338)"/>
        </g>
    </g>
</svg>
