<svg xmlns="http://www.w3.org/2000/svg" width="12" height="16" viewBox="0 0 12 16">
    <g fill="none" fill-rule="evenodd" opacity="1">
        <g fill="#FFF" fill-rule="nonzero">
            <path d="M41.066 438H39.68v4.662c0 .327-.333.49-.59.078l-.915-1.456-.914 1.456c-.26.41-.59.25-.59-.078V438H32.03c-1.122.003-2.03.909-2.03 2.025v11.955c.003 1.114.91 2.017 2.03 2.02h9.037c.248 0 .484-.099.659-.273.175-.173.274-.41.274-.655V438.93c-.001-.513-.419-.929-.934-.93zm.173 13.598l-8.818.011c-.192.013-.345.165-.358.357-.015.211.146.394.358.41h8.818l-.002.705c0 .042-.016.083-.045.113-.03.03-.071.045-.114.045H32.03c-.694 0-1.257-.56-1.257-1.25 0-.692.563-1.252 1.257-1.252h9.048c.089.001.16.073.161.16v.701z" transform="translate(-30 -438)"/>
        </g>
    </g>
</svg>
