<svg xmlns="http://www.w3.org/2000/svg" width="20" height="11" viewBox="0 0 20 11">
    <g fill="none" fill-rule="evenodd" opacity="1">
        <g fill="#FFF" fill-rule="nonzero">
            <path d="M45.911 497.797l-1.875-3.056c-.112-.184-.316-.297-.536-.297h-3.75v-1.833c0-.337-.28-.611-.625-.611h-8.75c-.345 0-.625.274-.625.611v.611h-3.125c-.345 0-.625.274-.625.611 0 .338.28.611.625.611h3.125v1.223h-1.875c-.345 0-.625.273-.625.61 0 .338.28.612.625.612h1.875v1.222h-.625c-.345 0-.625.274-.625.611 0 .338.28.611.625.611h.625v1.834c0 .337.28.61.625.61h.74c.259.71.946 1.223 1.76 1.223.814 0 1.501-.512 1.76-1.222h6.48c.259.71.946 1.222 1.76 1.222.814 0 1.501-.512 1.76-1.222h.74c.345 0 .625-.274.625-.611v-3.056c0-.111-.03-.22-.089-.314zm-13.036 3.98c-.344 0-.625-.273-.625-.61 0-.338.281-.611.625-.611s.625.273.625.61c0 .338-.281.612-.625.612zm5.625-1.221h-3.865c-.259-.71-.946-1.223-1.76-1.223-.814 0-1.501.512-1.76 1.223H31v-7.334h7.5v7.334zm4.375 1.222c-.344 0-.625-.274-.625-.611 0-.338.281-.611.625-.611s.625.273.625.61c0 .338-.281.612-.625.612zm1.875-1.222h-.115c-.259-.71-.946-1.223-1.76-1.223-.814 0-1.501.512-1.76 1.223H39.75v-4.89h3.396l1.604 2.615v2.275z" transform="translate(-26 -492)"/>
        </g>
    </g>
</svg>
