<svg xmlns="http://www.w3.org/2000/svg" width="15" height="16" viewBox="0 0 15 16">
    <g fill="none" fill-rule="evenodd" opacity="1">
        <g fill="#FFF" fill-rule="nonzero">
            <path d="M38.051 142.75h-6.436c-.72 0-1.307-.56-1.307-1.25v-9.438c0-.689.586-1.25 1.307-1.25h2.056v.313c0 1.034.88 1.875 1.961 1.875 1.082 0 1.962-.841 1.962-1.875v-.313h2.06c.72 0 1.307.561 1.307 1.25v4.563c0 .345.292.625.654.625.36 0 .653-.28.653-.625v-4.563c0-1.378-1.173-2.5-2.615-2.5h-2.06v-.937c0-.345-.292-.625-.653-.625h-2.615c-.361 0-.654.28-.654.625v.938h-2.056c-1.442 0-2.615 1.121-2.615 2.5v9.437c0 1.379 1.173 2.5 2.615 2.5h6.436c.361 0 .654-.28.654-.625s-.293-.625-.654-.625zm-3.072-13.5h1.307v1.875c0 .345-.293.625-.654.625-.36 0-.653-.28-.653-.625v-1.875zm8.448 11.55l-3.582-3.432c-.076-.073-.17-.126-.272-.156l-2.574-.748c-.228-.066-.476-.008-.646.151-.171.16-.238.395-.174.614l.731 2.523c.03.104.088.198.167.275l3.576 3.424c.382.365.884.548 1.386.548.503 0 1.005-.183 1.387-.548.765-.731.765-1.92 0-2.651zm-5.67-2.81l1.279.372 2.416 2.316-.925.884-2.403-2.302-.367-1.27zm4.745 4.577c-.255.244-.67.244-.924 0l-.127-.12.925-.885.126.121c.255.244.255.64 0 .884z" transform="translate(-29 -128)"/>
        </g>
    </g>
</svg>
