<svg xmlns="http://www.w3.org/2000/svg" width="16" height="16" viewBox="0 0 16 16">
    <g fill="none" fill-rule="evenodd" opacity="1">
        <g fill="#FFF" fill-rule="nonzero">
            <path d="M40.267 85.533V86.6c-1.47 0-2.667 1.196-2.667 2.667 0 1.47 1.196 2.666 2.667 2.666 1.47 0 2.666-1.196 2.666-2.666H44C44 91.325 42.325 93 40.267 93c-2.059 0-3.734-1.675-3.734-3.733s1.675-3.734 3.734-3.734zm-8.534 0c2.059 0 3.734 1.675 3.734 3.734 0 2.058-1.675 3.733-3.734 3.733C29.675 93 28 91.325 28 89.267s1.675-3.734 3.733-3.734zm0 1.067c-1.47 0-2.666 1.196-2.666 2.667 0 1.47 1.196 2.666 2.666 2.666s2.667-1.196 2.667-2.666-1.196-2.667-2.667-2.667zm11.357-.377l.754.754-3.2 3.2c-.104.104-.24.156-.377.156s-.273-.052-.377-.156l-1.067-1.067.754-.754.69.69 2.823-2.823zM40.267 77C42.325 77 44 78.675 44 80.733s-1.675 3.734-3.733 3.734c-2.059 0-3.734-1.675-3.734-3.734 0-2.058 1.675-3.733 3.734-3.733zm-8.534 0v1.067c-1.47 0-2.666 1.196-2.666 2.666s1.196 2.667 2.666 2.667 2.667-1.196 2.667-2.667h1.067c0 2.058-1.675 3.734-3.734 3.734-2.058 0-3.733-1.675-3.733-3.734C28 78.675 29.675 77 31.733 77zm8.534 1.067c-1.47 0-2.667 1.196-2.667 2.666s1.196 2.667 2.667 2.667c1.47 0 2.666-1.196 2.666-2.667 0-1.47-1.196-2.666-2.666-2.666zm-5.71-.377l.753.754-3.2 3.2c-.104.104-.24.156-.377.156-.136 0-.273-.052-.377-.156l-1.066-1.067.754-.754.69.69 2.822-2.823z" transform="translate(-28 -77)"/>
        </g>
    </g>
</svg>
