<svg xmlns="http://www.w3.org/2000/svg" id="bx-camera-home" width="24" height="24" viewBox="0 0 24 24">
    <defs>
        <style>
            .cls-1{fill:#4c5057}
        </style>
    </defs>
    <path id="Path_4790" d="M18.125 2H5.875A1.877 1.877 0 0 0 4 3.875v12.25A1.877 1.877 0 0 0 5.875 18H11v2H7v2h10v-2h-4v-2h5.125A1.877 1.877 0 0 0 20 16.125V3.875A1.877 1.877 0 0 0 18.125 2zM18 16H6V4h12z" class="cls-1"/>
    <path id="Path_4791" d="M12 14a4 4 0 1 0-4-4 4 4 0 0 0 4 4zm0-6a2 2 0 1 1-2 2 2 2 0 0 1 2-2z" class="cls-1"/>
    <path id="Rectangle_5763" fill="rgba(0,0,0,0)" d="M0 0H24V24H0z"/>
</svg>
