<svg xmlns="http://www.w3.org/2000/svg" width="24" height="24" viewBox="0 0 24 24">
    <path fill="#4c5057" d="M20.8 10.2l-1.4.4-1.2-.7V8.2l1.2-.7 1.4.4.3-1.1-1.1-.3.3-1.1-1.1-.3-.4 1.4-1.2.7-1.5-.9V5l1-1-.8-.8-.8.8-.8-.8-.8.8 1 1v1.3l-1.5.9-1.2-.7-.3-1.4-1.1.3.3 1.1-1.1.2.3 1.1 1.4-.4 1.2.7v1.7l-1.2.7-1.4-.4-.3 1.3 1.1.3-.3 1 1.1.3.4-1.4 1.2-.7 1.5.9v1.3l-1 1 .8.8.8-.8.8.8.8-.8-1-1v-1.3l1.5-.9 1.2.7.4 1.4 1.1-.3-.4-1.1 1.1-.3-.3-1.1m-6.8-2l1.5-.9 1.5.9v1.7l-1.5.9-1.5-.9V8.2M5 18S2 10 2 6s2-4 2-4h1a.979.979 0 0 1 1 1c0 1-1 1-1 3s3 4 3 7-3 5-3 5m10-1a2.006 2.006 0 0 1 2 2v1a2.006 2.006 0 0 1-2 2H9a3.679 3.679 0 0 1-3-1.8.52.52 0 0 1 0-.8s3-2.5 4-2.5h5z"/>
    <path fill="rgba(0,0,0,0)" d="M0 0H24V24H0z"/>
</svg>
