<svg xmlns="http://www.w3.org/2000/svg" width="24" height="24" viewBox="0 0 24 24">
    <path fill="#4c5057" d="M11 19.938a7.96 7.96 0 0 1-3.906-1.618l-1.458 1.458-1.414-1.414 1.458-1.458A7.96 7.96 0 0 1 4.062 13H2v-2h2.062A7.96 7.96 0 0 1 5.68 7.094L4.222 5.636l1.414-1.414L7.094 5.68A7.96 7.96 0 0 1 11 4.062V2h2v2.062a7.96 7.96 0 0 1 3.906 1.618l1.458-1.458 1.414 1.414-1.458 1.458A7.96 7.96 0 0 1 19.938 11H22v2h-2.062a7.96 7.96 0 0 1-1.618 3.906l1.458 1.458-1.414 1.414-1.458-1.458A7.96 7.96 0 0 1 13 19.938V22h-2zM12 17a5 5 0 1 0-5-5 5 5 0 0 0 5 5z"/>
    <path fill="rgba(0,0,0,0)" d="M0 0H24V24H0z"/>
</svg>
