<svg xmlns="http://www.w3.org/2000/svg" width="24" height="24" viewBox="0 0 24 24">
    <path fill="#4c5057" d="M15.9 5a.487.487 0 0 0-.41.23l-.07.15-5.18 11.65a1.97 1.97 0 0 0-.26.96 2.007 2.007 0 0 0 3.97.42l.01-.03L16.4 5.5a.5.5 0 0 0-.5-.5zM1 9l2 2a12.662 12.662 0 0 1 10.53-3.62l1.19-2.68A15.522 15.522 0 0 0 1 9zm20 2l2-2a15.367 15.367 0 0 0-5.59-3.57l-.53 2.82A12.617 12.617 0 0 1 21 11zm-4 4l2-2a9.879 9.879 0 0 0-2.66-1.89l-.55 2.92A7.251 7.251 0 0 1 17 15zM5 13l2 2a7.1 7.1 0 0 1 4.03-2l1.28-2.88A9.879 9.879 0 0 0 5 13z"/>
    <path fill="rgba(0,0,0,0)" d="M0 0H24V24H0z"/>
</svg>
