<svg xmlns="http://www.w3.org/2000/svg" width="24" height="24" viewBox="0 0 24 24">
    <g>
        <path fill="#4c5057" d="M20 15.5a11.36 11.36 0 0 1-3.57-.57 1.115 1.115 0 0 0-.31-.05 1.024 1.024 0 0 0-.71.29l-2.2 2.2a15.074 15.074 0 0 1-6.59-6.58l2.2-2.21a.982.982 0 0 0 .25-1.01A11.36 11.36 0 0 1 8.5 4a1 1 0 0 0-1-1H4a1 1 0 0 0-1 1 17 17 0 0 0 17 17 1 1 0 0 0 1-1v-3.5a1 1 0 0 0-1-1zM5.03 5h1.5a13.26 13.26 0 0 0 .46 2.59L5.79 8.8A14.989 14.989 0 0 1 5.03 5zM19 18.97a14.9 14.9 0 0 1-3.8-.76l1.2-1.2a12.753 12.753 0 0 0 2.6.45zM12 3v10l3-3h6V3zm7 5h-5V5h5z" transform="translate(.02) translate(-.019)"/>
        <path fill="rgba(0,0,0,0)" d="M0 0H24V24H0z" transform="translate(.02) translate(-.02)"/>
    </g>
</svg>
