<svg xmlns="http://www.w3.org/2000/svg" width="16" height="16" viewBox="0 0 16 16">
    <g fill="none" fill-rule="evenodd">
        <g fill="#FFF" fill-rule="nonzero">
            <path d="M1259 81c4.411 0 8 3.589 8 8s-3.589 8-8 8-8-3.589-8-8 3.589-8 8-8zm0 1.23c-3.733 0-6.77 3.037-6.77 6.77 0 3.733 3.037 6.77 6.77 6.77 3.733 0 6.77-3.037 6.77-6.77 0-3.733-3.037-6.77-6.77-6.77zm2.847 4.284l.87.87-4.948 4.948-2.486-2.487.87-.87 1.616 1.616 4.078-4.077z" transform="translate(-1251 -81)"/>
        </g>
    </g>
</svg>
