<svg xmlns="http://www.w3.org/2000/svg" width="50" height="50" viewBox="0 0 50 50">
    <g>
        <path fill="#11be9a" d="M37.3 10.162v8.491a13.806 13.806 0 0 0-2.081-.166 14.557 14.557 0 0 0-14.4 12.486H4V10.162l16.648 10.405zM37.3 6H4l16.648 10.405z" opacity="0.3" transform="translate(0 .055) translate(4.324 6.486)"/>
        <path fill="#11be9a" d="M22.977 33.134H6.162v-20.81L22.81 22.729l16.649-10.405v8.491a14.63 14.63 0 0 1 4.162 1.249V8.162A4.174 4.174 0 0 0 39.459 4H6.162a4.157 4.157 0 0 0-4.141 4.162L2 33.134A4.174 4.174 0 0 0 6.162 37.3h16.815a13.09 13.09 0 0 1 0-4.162zM39.459 8.162L22.81 18.567 6.162 8.162zm-5.536 33.3l-7.367-7.367 2.934-2.934 4.41 4.408 8.824-8.824L45.7 29.68z" transform="translate(0 .055) translate(2.162 4.324)"/>
        <path fill="rgba(0,0,0,0)" d="M0 0H50V50H0z" transform="translate(0 .055) translate(0 -.055)"/>
    </g>
</svg>
