<svg xmlns="http://www.w3.org/2000/svg" id="Logo_1" width="126.664" height="18.601" viewBox="0 0 126.664 18.601">
    <defs>
        <style>
            .cls-1{fill:#c91e33}
        </style>
    </defs>
    <g id="Group_20505">
        <path id="Path_5900" d="M408.035 362.5a2.537 2.537 0 0 1-1.177-1.177 1.776 1.776 0 0 1-.185-.781v-9.023a1.776 1.776 0 0 1 .185-.78 2.54 2.54 0 0 1 1.177-1.178 1.729 1.729 0 0 1 .754-.185H421.6v3.572h-11.118v6.165H421.6v3.572h-12.811a1.724 1.724 0 0 1-.754-.185z" class="cls-1" transform="translate(-406.672 -349.376)"/>
        <path id="Path_5901" d="M466.286 362.685h-3.81v-2.2h-6.668l-1.746 2.2h-4.472l9.261-12.356a3.564 3.564 0 0 1 1.68-.741 10.987 10.987 0 0 1 2.13-.212 6.914 6.914 0 0 1 1.482.146 3.025 3.025 0 0 1 1.138.49 2.277 2.277 0 0 1 .741.926 3.52 3.52 0 0 1 .264 1.455zm-3.969-9.181a.572.572 0 0 0-.423-.159.919.919 0 0 0-.6.265 6.25 6.25 0 0 0-.542.529l-2.593 3.149h4.313v-3.466a.457.457 0 0 0-.155-.322z" class="cls-1" transform="translate(-433.066 -349.376)"/>
        <path id="Path_5902" d="M510.992 354.4v-1.455H499.35v-3.572h13.336a1.728 1.728 0 0 1 .754.185 2.543 2.543 0 0 1 1.178 1.178 1.776 1.776 0 0 1 .185.78v4a1.776 1.776 0 0 1-.185.78 2.54 2.54 0 0 1-1.178 1.177 1.724 1.724 0 0 1-.754.186H511.6l7.488 10.319H514.8l-7.753-10.319h-3.887v5.027h-3.81V354.4z" class="cls-1" transform="translate(-463.668 -349.376)"/>
        <path id="Path_5903" d="M592.777 349.376v9.737h11.114v3.572h-12.807a1.725 1.725 0 0 1-.754-.185 2.541 2.541 0 0 1-1.177-1.177 1.776 1.776 0 0 1-.185-.781v-11.166z" transform="translate(-518.782 -349.376)"/>
        <path id="Path_5904" d="M649.847 362.5a2.538 2.538 0 0 1-1.177-1.177 1.777 1.777 0 0 1-.186-.781v-9.023a1.776 1.776 0 0 1 .186-.78 2.541 2.541 0 0 1 1.177-1.178 1.731 1.731 0 0 1 .754-.185h12.807v3.572h-11.114v6.165h11.113v3.572H650.6a1.726 1.726 0 0 1-.753-.185z" transform="translate(-555.384 -349.376)"/>
        <path id="Path_5905" d="M703.435 356.044l5.768-6.668h-4.736l-4.393 5.027h-3.624v-5.027h-3.81v13.309h3.81v-5.027h3.625l4.383 5.027h4.736z" transform="translate(-582.54 -349.376)"/>
        <path id="Path_5906" d="M551.814 352.948h7.92v-3.572h-12.806a1.727 1.727 0 0 0-.754.185 2.539 2.539 0 0 0-1.174 1.178 1.776 1.776 0 0 0-.185.78v9.023a1.776 1.776 0 0 0 .185.781 2.536 2.536 0 0 0 1.178 1.177 1.722 1.722 0 0 0 .754.185h12.807v-3.572h-11.118v-6.165z" transform="translate(-491.626 -349.376)"/>
        <path id="Rectangle_6826" d="M0 0H3.837V9.737H0z" transform="translate(87.185 3.572)"/>
        <path id="Rectangle_6827" d="M0 0H3.837V2.117H0z" transform="translate(87.185)"/>
    </g>
</svg>
