<svg xmlns="http://www.w3.org/2000/svg" width="16" height="16" viewBox="0 0 16 16">
    <g fill="none" fill-rule="evenodd">
        <g fill="#EF4D1D" fill-rule="nonzero">
            <path d="M1140.344 83.342c3.12-3.12 8.197-3.12 11.316 0 3.12 3.12 3.12 8.196 0 11.316-1.56 1.56-3.61 2.34-5.658 2.34-2.05 0-4.098-.78-5.658-2.34-1.512-1.511-2.344-3.52-2.344-5.658 0-2.137.832-4.146 2.344-5.658zm10.44.876c-2.637-2.636-6.927-2.636-9.564 0-1.277 1.278-1.98 2.976-1.98 4.782s.703 3.505 1.98 4.781c2.637 2.637 6.927 2.637 9.564 0 2.636-2.636 2.636-6.926 0-9.563zm-7.377 2.114c.243-.242.635-.242.877 0l1.756 1.753 1.756-1.753c.243-.242.635-.242.877 0 .241.243.241.635 0 .877l-1.755 1.752 1.755 1.752c.242.242.242.634 0 .877-.12.12-.28.181-.438.181-.16 0-.318-.06-.439-.18l-1.756-1.754-1.756 1.753c-.12.12-.28.181-.438.181-.159 0-.318-.06-.439-.181-.241-.243-.241-.635.001-.877l1.755-1.752-1.755-1.752c-.242-.242-.242-.634 0-.877z" transform="translate(-1138 -81)"/>
        </g>
    </g>
</svg>
