<svg xmlns="http://www.w3.org/2000/svg" width="20" height="20" viewBox="0 0 20 20">
    <defs>
        <style>
            .cls-1{fill:#000000}
        </style>
    </defs>
    <g id="bx-car" transform="translate(-.01 -.01)">
        <path id="Path_4814" d="M17.651 9.133L16.51 5.71A2.5 2.5 0 0 0 14.138 4h-7.6a2.5 2.5 0 0 0-2.374 1.71l-1.14 3.423A1.67 1.67 0 0 0 2 10.67v4.169a1.662 1.662 0 0 0 .866 1.453.826.826 0 0 0-.033.163v1.719a.834.834 0 0 0 .834.834H4.5a.834.834 0 0 0 .834-.834v-1.668h10v1.667a.834.834 0 0 0 .834.834h.834a.834.834 0 0 0 .834-.834v-1.719a.814.814 0 0 0-.033-.163 1.662 1.662 0 0 0 .866-1.453V10.67a1.67 1.67 0 0 0-1.018-1.537zM3.667 14.839V10.67h13.34v4.169zm2.869-9.172h7.6a.832.832 0 0 1 .791.57L15.851 9H4.824l.921-2.765a.834.834 0 0 1 .791-.568z" class="cls-1" transform="translate(-.333 -.665)"/>
        <ellipse id="Ellipse_728" cx="1.5" cy="1" class="cls-1" rx="1.5" ry="1" transform="translate(4.01 11.01)"/>
        <ellipse id="Ellipse_729" cx="1.5" cy="1" class="cls-1" rx="1.5" ry="1" transform="translate(13.01 11.01)"/>
        <path id="Rectangle_5868" fill="rgba(0,0,0,0)" d="M0 0H20V20H0z" transform="translate(.01 .01)"/>
    </g>
</svg>
