<svg xmlns="http://www.w3.org/2000/svg" width="16" height="16" viewBox="0 0 16 16">
    <g fill="none" fill-rule="evenodd">
        <g fill="#486B94" fill-rule="nonzero">
            <g>
                <path d="M23.55 24.086c.248 0 .45.204.45.457 0 .252-.202.457-.45.457H8.45c-.248 0-.45-.205-.45-.457 0-.253.202-.457.45-.457zm-13.094-6.423l2.231 2.263-2.862.64.631-2.903zm6.783-7.429l2.772 2.812-6.422 6.514-2.772-2.811 6.422-6.515zM19.245 9c.524.008 1.025.22 1.397.594.367.378.57.888.564 1.417.012.525-.192 1.03-.564 1.395L17.87 9.57c.366-.368.86-.573 1.375-.571z" transform="translate(-276 -337) translate(268 328)"/>
            </g>
        </g>
    </g>
</svg>
