<svg xmlns="http://www.w3.org/2000/svg" width="16" height="16" viewBox="0 0 16 16">
    <g>
        <path fill="#4c5057" d="M9.026 4.369l-.5-2.378H7.342l-.5 2.378-.694.3-1.977-1.291-.892.793 1.288 1.982-.2.694-2.378.5v1.184l2.378.5.3.793L3.378 11.8l.793.793 1.982-1.288.793.3.4 2.279h1.185l.5-2.378.793-.3 1.976 1.288.793-.793-1.288-1.981.3-.793 2.279-.4V7.342l-2.378-.5-.3-.793 1.288-1.982-.794-.788-1.98 1.288-.694-.2zM9.323 1l.5 2.378L11.9 2.09l1.982 1.982-1.388 2.081 2.378.4v2.77l-2.378.5 1.387 2.077-1.981 1.981-2.081-1.387-.5 2.378h-2.77l-.5-2.378-2.076 1.288L1.991 11.8l1.387-2.08L1 9.323V6.549l2.378-.5L2.09 3.973l1.982-1.982 2.081 1.387L6.549 1zm.595 6.936a1.982 1.982 0 1 1-1.982-1.982 1.988 1.988 0 0 1 1.982 1.982zm-1.982.991a.936.936 0 0 0 .991-.991.936.936 0 0 0-.991-.991.936.936 0 0 0-.991.991.936.936 0 0 0 .991.991z" transform="translate(.991 .991) translate(-1 -1)"/>
    </g>
    <path fill="rgba(0,0,0,0)" d="M0 0H16V16H0z"/>
</svg>
