<svg xmlns="http://www.w3.org/2000/svg" width="24" height="24" viewBox="0 0 24 24">
    <path fill="#fff" d="M121.6 118.424a3.079 3.079 0 1 0 3.079 3.079 3.085 3.085 0 0 0-3.079-3.079zm9.234 3.079c0-1.275.012-2.538-.06-3.811a5.108 5.108 0 0 0-5.36-5.36c-1.275-.072-2.538-.06-3.811-.06s-2.538-.012-3.811.06a5.108 5.108 0 0 0-5.36 5.36c-.072 1.275-.06 2.538-.06 3.811s-.012 2.538.06 3.811a5.108 5.108 0 0 0 5.36 5.36c1.275.072 2.538.06 3.811.06s2.538.012 3.811-.06a5.108 5.108 0 0 0 5.36-5.36c.073-1.274.059-2.537.059-3.814zm-9.234 4.737a4.737 4.737 0 1 1 4.737-4.737 4.73 4.73 0 0 1-4.737 4.736zm4.931-8.561a1.1 1.1 0 1 1 .783-.324 1.1 1.1 0 0 1-.783.323z" transform="translate(-109.775 -109.677)"/>
    <path fill="rgba(0,0,0,0)" d="M0 0H24V24H0z"/>
</svg>
