<svg xmlns="http://www.w3.org/2000/svg" id="photo2" width="244.361" height="206.731" viewBox="0 0 244.361 206.731">
    <defs>
        <style>
            .cls-1{fill:#333}.cls-2{fill:#f6ddc6}.cls-3{fill:#29295b}.cls-4{fill:#b2263e}.cls-5{fill:#4d4d4d}.cls-6{fill:#5699e8}
        </style>
    </defs>
    <g id="Group_18583" transform="translate(177.438 142.379)">
        <path id="Rectangle_6021" d="M0 0H4.227V45.715H0z" class="cls-1" transform="translate(20.431 10.243)"/>
        <path id="Rectangle_6022" d="M2.752 0h31.521a2.752 2.752 0 0 1 2.752 2.752H0A2.752 2.752 0 0 1 2.752 0z" class="cls-1" transform="translate(4.032 54.088)"/>
        <rect id="Rectangle_6023" width="46.552" height="13.203" class="cls-1" rx="6.601"/>
    </g>
    <g id="Group_18584" transform="translate(114.692 113.918)">
        <path id="Path_5255" d="M3515.635 5513.667a36.8 36.8 0 0 0-13.344 5.7 3.52 3.52 0 0 0-1.554 3.365c.846 6.7 4.323 28.38 15.789 49.557a5.329 5.329 0 0 1 .511 3.658l-1.992 9.27-3.694 3.464h9.515l6.335-17.144-2.709-.857a5.126 5.126 0 0 1-3.58-4.8l-.318-18.392a20.926 20.926 0 0 0-5.024-13.848l15.2-.739z" class="cls-2" transform="translate(-3461.039 -5505.082)"/>
        <path id="Path_5256" d="M3537.266 5835.889c-.867 1.134 9.327 2.631 14.477.15 0 0 7.139-12.421 7.139-18.816 0 0-.566-1.3-4.758-1.008 0 0-2.4 14.707-4.928 16.354s-7.081.167-7.081.167-3.571 1.479-4.849 3.153z" class="cls-3" transform="translate(-3490.67 -5750.622)"/>
        <path id="Path_5257" d="M3376.715 5544.081c-.081-.14-16.361-1.958-16.361-1.958a37.623 37.623 0 0 1-1.132 11.764c-1.665 6.814-25.568 36.337-25.568 36.337l2.506 7.945a40.317 40.317 0 0 1-22.873 1.375l15.533-9.321s14.536-49.538 23.44-58.375l16.319-5.646z" class="cls-2" transform="translate(-3308.91 -5515.257)"/>
        <path id="Path_5258" d="M3581.926 5468.072s9.38 13.951 10.149 20.315-2.57 8.95-12.412 9.376-36.115.42-36.115.42l-22.424-19.165s16.342-5.831 20.591-7.48 40.211-3.466 40.211-3.466z" class="cls-4" transform="translate(-3477.61 -5468.072)"/>
        <path id="Path_5259" d="M3316.344 5894.17s2.7 2.613.875 5.521c0 0-21.375 3.789-27.178 2.069 0 0 1.2-2.75 7.74-5.881l-.482.37a.78.78 0 0 0 .516 1.4c4.306-.244 13.217-1.033 18.529-3.479z" class="cls-3" transform="translate(-3290.041 -5813.934)"/>
    </g>
    <g id="Group_18585" transform="translate(155.617 24.844)">
        <path id="Path_5260" d="M3534.021 5293.976l-14.354-34.861A1.8 1.8 0 0 0 3518 5258h-8.828a1.8 1.8 0 0 0-1.635 2.549l16.644 36.314a1.8 1.8 0 0 0 2.026 1.007l6.539-1.453a1.8 1.8 0 0 0 1.275-2.441z" class="cls-3" transform="translate(-3507.373 -5208.483)"/>
        <path id="Path_5261" d="M3635.033 5231.948s-10.923-10.4-16.3-17.29a14.614 14.614 0 0 1-2.475-13.154c2.455-8.271 6.817-16.836 7.215-18.169.61-2.043 12.857-1.958 12.857-1.958s24.1 15.642 33.569 42.137l-10.634 3.311s-6.292-10.557-12.51-17.269c0 0 10.759 14.212 11.138 20.031z" class="cls-4" transform="translate(-3595.262 -5146.288)"/>
        <path id="Path_5262" d="M3649.328 5124.018c.127.425 3.324 11.022 3.574 11.242s7.01.583 10.192-1.591l-5.4-11.3z" class="cls-2" transform="translate(-3622.597 -5098.391)"/>
        <path id="Path_5263" d="M3611.668 5042.715s-3.791 4.143-3.869 12.4 3.748 10.3 6.945 9.357 7.65-3.069 10.38-9.635-8.424-17.281-13.456-12.122z" class="cls-2" transform="translate(-3588.887 -5032.633)"/>
        <path id="Path_5264" d="M3611.854 5021.012s-1.015-11.568-9.881-7.641l-1.409 2.4s-5.762-4.027-1.663-9.094a12.419 12.419 0 0 1 18.633-.245c5.54 6.114 6.337 11.337 4.149 16.482s-5.516 1.977-5.516 1.977.578-4.139-1.041-5.468-2.592 1.618-2.592 1.618z" class="cls-3" transform="translate(-3580.471 -5000.969)"/>
        <path id="Path_5265" d="M3681.829 5082.952s-.556-5.943 2.772-5 .226 5.622-1.072 7.273z" class="cls-2" transform="translate(-3648.949 -5062.254)"/>
        <path id="Path_5266" d="M3600.409 5414.351l8.025-7.735 11.1 4.69s11.051 1.711 17.375 0l6.325-1.712 14.292-4.45 2.245 6.344a3.82 3.82 0 0 1-1.4 4.388 25.278 25.278 0 0 1-3.61 2.249c-1.882.823-46.4-.57-46.4-.57z" class="cls-2" transform="translate(-3582.89 -5327.918)"/>
        <path id="Path_5267" d="M3697.408 5001.941a2.218 2.218 0 0 1-.339-3.915c4.8-3.177 13.05-5.97 21.435 3.571 9.444 10.748 14.729 15.862 17.72 15.813a2.229 2.229 0 0 1 1.818 3.667 9.456 9.456 0 0 1-5.31 2.667c-20.96 4.55-25.562-18.063-35.324-21.803z" class="cls-3" transform="translate(-3660.521 -4995.039)"/>
    </g>
    <g id="Group_18587" transform="translate(32.413 115.685)">
        <g id="Group_18586" transform="translate(11.395 3.628)">
            <path id="Path_5268" d="M2915.313 5579.111a1.776 1.776 0 0 1-.673-.133 1.6 1.6 0 0 1-.892-2.132l35.752-79.146a1.739 1.739 0 0 1 2.24-.85 1.6 1.6 0 0 1 .892 2.133l-35.754 79.142a1.71 1.71 0 0 1-1.565.986z" class="cls-5" transform="translate(-2913.609 -5496.722)"/>
            <path id="Path_5269" d="M2975.086 5579.109a1.71 1.71 0 0 1-1.567-.982l-35.754-79.141a1.6 1.6 0 0 1 .892-2.133 1.738 1.738 0 0 1 2.24.85l35.754 79.142a1.6 1.6 0 0 1-.892 2.132 1.766 1.766 0 0 1-.673.132z" class="cls-5" transform="translate(-2933.104 -5496.72)"/>
            <path id="Path_5270" d="M3696.447 5579.111a1.776 1.776 0 0 1-.673-.133 1.6 1.6 0 0 1-.892-2.132l35.753-79.142a1.739 1.739 0 0 1 2.24-.85 1.6 1.6 0 0 1 .893 2.133l-35.754 79.142a1.71 1.71 0 0 1-1.567.982z" class="cls-5" transform="translate(-3547.651 -5496.722)"/>
            <path id="Path_5271" d="M3756.218 5579.109a1.71 1.71 0 0 1-1.567-.982l-35.753-79.141a1.6 1.6 0 0 1 .893-2.133 1.738 1.738 0 0 1 2.239.85l35.754 79.142a1.6 1.6 0 0 1-.893 2.132 1.765 1.765 0 0 1-.673.132z" class="cls-5" transform="translate(-3567.144 -5496.72)"/>
        </g>
        <path id="Path_5272" d="M3065.007 5479.594a1.641 1.641 0 0 0-.432-1.488 2.176 2.176 0 0 0-1.583-.655h-207.533a2.457 2.457 0 0 0-1.99.956 1.855 1.855 0 0 0-.154 1.986l2.249 4.271a3.2 3.2 0 0 0 2.859 1.6h203.146a2.326 2.326 0 0 0 2.341-1.695z" class="cls-5" transform="translate(-2853.097 -5477.451)"/>
    </g>
    <g id="Group_18588" transform="translate(1.281 136.195)">
        <path id="Path_5273" d="M2697.567 5635.423c-1.254 1.855-6.237 43.861-7.017 59.375a1.835 1.835 0 0 0 1.837 1.924 1.839 1.839 0 0 0 1.816-1.555l9.114-58.408z" class="cls-1" transform="translate(-2690.024 -5626.186)"/>
        <path id="Path_5274" d="M2915.793 5635.423c1.254 1.855 6.237 43.861 7.017 59.375a1.835 1.835 0 0 1-1.837 1.924 1.838 1.838 0 0 1-1.816-1.555l-9.115-58.408z" class="cls-1" transform="translate(-2868.186 -5626.186)"/>
        <path id="Path_5275" d="M2687.773 5592.33v.458a6.244 6.244 0 0 0 6.364 6.059l42.129.717a6.3 6.3 0 0 0 6.594-5.717l.022-.419a6.221 6.221 0 0 0-6.35-6.3l-42.147-.755a6.275 6.275 0 0 0-6.612 5.957z" class="cls-1" transform="translate(-2687.769 -5586.371)"/>
    </g>
    <g id="Group_18591" transform="translate(0 14.668)">
        <g id="Group_18589" transform="translate(57.072 171.473)">
            <path id="Path_5276" d="M2995.386 5883.189c-6.691 0-9.652-.574-10.975-1.1a2.539 2.539 0 0 0 2.473 1.966h23.671a1.151 1.151 0 0 0 1.109-1.454c-2.698.221-8.429.588-16.278.588z" class="cls-3" transform="translate(-2984.343 -5876.353)"/>
            <path id="Path_5277" d="M3011.372 5857.864a1.123 1.123 0 0 0-.194-.4c-1.8-2.3-5.426-5.917-10.353-5.848-7.218.1-9.734.885-15.344.044l-1.323 4.386a2.515 2.515 0 0 0-.04 1.308c1.324.524 4.284 1.1 10.975 1.1 7.85-.005 13.581-.372 16.279-.59z" class="cls-3" transform="translate(-2984.051 -5851.612)"/>
        </g>
        <path id="Path_5278" d="M2993.275 5826.75l-1.625 5.524s3.6 1.639 6.763.323l.622-4.786z" class="cls-2" transform="translate(-2933.147 -5659.959)"/>
        <g id="Group_18590" transform="translate(97.462 163.487)">
            <path id="Path_5279" d="M3220.987 5823.539c-5.216 4.191-7.882 5.6-9.24 6.023a2.536 2.536 0 0 0 3.153-.023l18.452-14.827a1.147 1.147 0 0 0-.042-1.823c-1.967 1.859-6.205 5.734-12.323 10.65z" class="cls-3" transform="translate(-3209.26 -5812.195)"/>
            <path id="Path_5280" d="M3222.59 5809.9a1.118 1.118 0 0 0-.4-.191c-2.84-.656-7.918-1.192-11.715 1.948-5.563 4.6-7.037 6.783-11.934 9.645l1.7 4.231a2.494 2.494 0 0 0 .784 1.041c1.358-.423 4.024-1.832 9.24-6.022 6.12-4.92 10.358-8.796 12.325-10.652z" class="cls-3" transform="translate(-3198.539 -5809.204)"/>
        </g>
        <path id="Path_5281" d="M2782.511 5492.508s40.06 3.271 48.278 7.14-6.707 58.089-6.707 58.089-2.237 1.076-7.216-.471c0 0 5.105-40.012 1.307-48.688l-43.375-7.095z" class="cls-3" transform="translate(-2757.13 -5388.656)"/>
        <path id="Path_5282" d="M3177.4 5822.8c.372.339 3.98 7.616 3.98 7.616s4.017-.869 4.836-3.411l-3.615-6.568z" class="cls-2" transform="translate(-3083.92 -5654.834)"/>
        <path id="Path_5283" d="M2682.221 5490.731a20.289 20.289 0 0 0-1.252 7.316 10.983 10.983 0 0 0 10.481 10.745l47.357 2.159a2.272 2.272 0 0 1 2.1 1.707c1.113 4.305 6.552 17.523 33.142 43.9a2.144 2.144 0 0 0 2.652.289l3.785-2.391a.872.872 0 0 0 .287-1.177l-27.574-47.086a10.671 10.671 0 0 0-6.484-4.809l-40.363-10.317z" class="cls-3" transform="translate(-2680.968 -5387.214)"/>
        <path id="Path_5284" d="M2686.891 5197.271s-.469-23.472 4.223-45.562a35.663 35.663 0 0 1 12.792-20.621l2.192-1.727 10.975 4.458 5.64 9.746c3.1 6.209 2.343 19.7 0 26.232-3.917 10.928-7.049 22.253-8.384 27.815 0 .002-18.178 2.403-27.438-.341z" class="cls-6" transform="translate(-2685.765 -5093.893)"/>
        <path id="Path_5285" d="M2792.053 5036.474l-8.574 19.892s2.744 6.174 12.347 3.773l3.43-13.72z" class="cls-2" transform="translate(-2764.176 -5018.496)"/>
        <path id="Path_5286" d="M2859.6 4980.571c.1.278.331 19.877.331 19.877l-11.193-.109-2.975-18.543s12.111-5.876 13.837-1.225z" class="cls-2" transform="translate(-2814.734 -4971.667)"/>
        <path id="Path_5287" d="M2820.113 4954.7l.8 9.884a1.36 1.36 0 0 0 .081.367c.271.73 1.385 3.173 3.815 1.88 2.2-1.173 4.234-2.21 5.82-2.077a1.384 1.384 0 0 1 1.27 1.364 59.876 59.876 0 0 1-.566 9.277 1.38 1.38 0 0 1-1.467 1.152 44.624 44.624 0 0 1-10.239-1.815 1.385 1.385 0 0 1-.923-1.076c-.422-2.447-1.732-9.882-2.418-11.9-.643-1.892-3.275-2.539-4.4-2.733a1.358 1.358 0 0 1-.9-.583c-.739-1.1-2-3.731 1.255-5.626a1.388 1.388 0 0 0 .479-1.939c-.831-1.331-1.525-3.487.92-5.286a5.075 5.075 0 0 1 6.227.147 1.386 1.386 0 0 0 1.77-.169 1.1 1.1 0 0 1 1.228-.222 1.365 1.365 0 0 0 1.765-.98 4.136 4.136 0 0 1 4.191-3.356c4.959-.215 6.646 4.967 6.056 8.345s-5.98 3.3-8.894 2.3c-2.216-.767-4.486 1.03-5.447 1.935a1.372 1.372 0 0 0-.423 1.111z" class="cls-3" transform="translate(-2785.798 -4941.003)"/>
        <path id="Path_5288" d="M2820.517 5039.647s.776-5.93-1.535-6.842-5.151.436-3.63 4.28c1.891 4.784 5.165 2.562 5.165 2.562z" class="cls-2" transform="translate(-2789.698 -5015.296)"/>
        <path id="Path_5289" d="M2781.892 5228.245c-28.266 8.874-26.763-30.911-26.946-31.19-11.205-17.124-17.5 5.7-16.412 8.912 9.939 35.982 34.994 34.2 44.757 27.133a7.84 7.84 0 0 1-1.399-4.855z" class="cls-6" transform="translate(-2727.597 -5143.719)"/>
        <path id="Path_5290" d="M2827.755 5255.568a.717.717 0 0 1-.392-.3c-4.283-6.674-5.491-15.948-5.751-22.553a.719.719 0 0 1 1.437-.057c.207 5.261 1.2 15.093 5.525 21.832a.719.719 0 0 1-.819 1.075z" class="cls-6" transform="translate(-2795.128 -5177.18)"/>
        <path id="Path_5291" d="M2748.777 5291.8a.716.716 0 0 1-.249-.135c-6.46-5.414-11.328-13.921-14.466-25.285a.719.719 0 1 1 1.386-.383c3.06 11.078 7.771 19.342 14 24.564a.719.719 0 0 1-.675 1.238z" class="cls-6" transform="translate(-2724.043 -5204.372)"/>
        <path id="Path_5292" d="M2985.873 5345.765s-.459.733-3.768 3.3-6.642 4.043-4.112.52 1.3-5.342-1.588-1.546a26.6 26.6 0 0 1-4.952 5.263q-1.14.436-2.219.773a7.838 7.838 0 0 0 1.4 4.854c1.145-.378 1.792-.658 1.792-.658s8.754-1.593 10.629-5.32a43.444 43.444 0 0 0 2.818-7.186z" class="cls-2" transform="translate(-2914.938 -5269.546)"/>
    </g>
    <g id="Group_18593" transform="translate(85.863)">
        <path id="Path_5293" fill="#fff" d="M3190.49 4940.48s-72.488-35.816-48.782-62.186 67.9-15.83 70.142 11.925-51.55 21.243-21.36 50.261z" transform="translate(-3136.944 -4863.106)"/>
        <g id="Group_18592" transform="translate(8.009 21.268)">
            <path id="Path_5294" d="M3191.654 4977.513h31.991a.731.731 0 0 0 0-1.462h-31.991a.731.731 0 0 0 0 1.462z" class="cls-3" transform="translate(-3188.767 -4976.051)"/>
            <path id="Path_5295" d="M3411.99 4977.513h9.493a.731.731 0 0 0 0-1.462h-9.493a.731.731 0 0 0 0 1.462z" class="cls-3" transform="translate(-3367.613 -4976.051)"/>
            <path id="Path_5296" d="M3185.93 5011.905h12.012a.731.731 0 0 0 0-1.462h-12.012a.731.731 0 0 0 0 1.462z" class="cls-3" transform="translate(-3184.122 -5003.967)"/>
            <path id="Path_5297" d="M3343.326 5011.905h21.345a.731.731 0 0 0 0-1.462h-21.345a.731.731 0 0 0 0 1.462z" class="cls-3" transform="translate(-3311.879 -5003.967)"/>
            <path id="Path_5298" d="M3180.207 5046.3h31.932a.731.731 0 1 0 0-1.461h-31.932a.731.731 0 1 0 0 1.461z" class="cls-3" transform="translate(-3179.476 -5031.886)"/>
            <path id="Path_5299" d="M3392.246 5046.3h11.054a.731.731 0 1 0 0-1.461h-11.055a.731.731 0 1 0 0 1.461z" class="cls-3" transform="translate(-3351.587 -5031.886)"/>
        </g>
    </g>
</svg>
