<svg xmlns="http://www.w3.org/2000/svg" id="No_products" width="246" height="110" viewBox="0 0 246 110">
    <defs>
        <style>
            .cls-1{fill:#d7d8d9}
        </style>
    </defs>
    <path id="Rectangle_6861" d="M0 0H42V7H0z" class="cls-1" transform="translate(0 34)"/>
    <path id="Rectangle_6864" fill="none" d="M0 0H42V7H0z" transform="translate(204 67)"/>
    <path id="Rectangle_6863" d="M0 0H25V7H0z" class="cls-1" transform="translate(189 30)"/>
    <g id="Union_3" fill="#fff" stroke="none">
        <path d="M58.628 108.5h-5.445c-3.033 0-5.5-2.468-5.5-5.5v-6.513l-1.189-.252c-4.77-1.014-9.297-2.821-13.454-5.372l-1.009-.62-.836.837-3.586 3.585c-1.039 1.039-2.42 1.611-3.889 1.611-1.469 0-2.85-.572-3.889-1.61l-3.84-3.84c-2.144-2.144-2.144-5.633 0-7.778l3.4-3.4.86-.858-.662-1.02c-2.682-4.124-4.596-8.633-5.69-13.4l-.267-1.164H7c-3.033 0-5.5-2.468-5.5-5.5v-5.412c0-3.033 2.467-5.5 5.5-5.5H13.632l.267-1.164c.273-1.189.602-2.38.98-3.54l.005-.016.004-.016c1.076-3.577 2.624-6.989 4.6-10.142l.635-1.012-.845-.845-.01-.011-.01-.01-3.839-3.839c-1.039-1.038-1.61-2.42-1.61-3.889 0-1.469.571-2.85 1.61-3.89l3.838-3.838c1.039-1.038 2.42-1.61 3.89-1.61 1.469 0 2.85.572 3.889 1.61l3.838 3.84.041.04.007.007.814.812 1.014-.632c4.214-2.646 8.836-4.502 13.737-5.519l1.196-.247V7c0-3.033 2.467-5.5 5.5-5.5h5.445c3.033 0 5.5 2.467 5.5 5.5v6.193l1.143.28c4.656 1.14 9.055 3.041 13.075 5.652l1.019.661.859-.859 3.773-3.773c1.038-1.039 2.42-1.61 3.889-1.61 1.47 0 2.85.571 3.89 1.61l3.838 3.839c2.144 2.145 2.144 5.634 0 7.778l-3.839 3.84-.852.852.65 1.016c2.597 4.058 4.457 8.483 5.528 13.15l.267 1.165H104c3.032 0 5.5 2.467 5.5 5.5v5.411c0 3.033-2.468 5.5-5.5 5.5H97.368L97.1 64.37c-1.062 4.627-2.899 9.016-5.46 13.045l-.646 1.015.85.85 3.768 3.768c1.039 1.039 1.611 2.42 1.611 3.89 0 1.468-.572 2.85-1.611 3.889l-3.838 3.837c-1.039 1.04-2.42 1.612-3.89 1.612-1.468 0-2.85-.573-3.888-1.612L80.19 90.86l-.846-.847-1.014.638c-2.745 1.73-5.699 3.137-8.778 4.185h-.003l-.003.001c-1.391.48-2.824.892-4.258 1.225l-1.161.27V103c0 3.032-2.467 5.5-5.5 5.5z" transform="translate(68)"/>
        <path fill="#6e7580" d="M58.628 107c2.206 0 4-1.795 4-4v-7.861l2.322-.54c1.383-.32 2.766-.718 4.108-1.18l.006-.003.006-.002c2.968-1.01 5.816-2.367 8.462-4.033l2.027-1.276 1.693 1.693 3.805 3.806c.756.755 1.76 1.172 2.829 1.172 1.068 0 2.073-.417 2.829-1.172l3.837-3.838c.756-.756 1.172-1.76 1.172-2.829 0-1.068-.416-2.073-1.172-2.829l-3.767-3.768-1.7-1.7 1.29-2.03c2.47-3.885 4.24-8.116 5.264-12.575l.534-2.33H104c2.205 0 4-1.794 4-4v-5.411c0-2.206-1.795-4-4-4h-7.827l-.534-2.329c-1.033-4.5-2.826-8.765-5.33-12.677l-1.3-2.032 1.706-1.706 3.838-3.84c.755-.755 1.171-1.76 1.171-2.828 0-1.068-.416-2.073-1.171-2.828l-3.838-3.84c-.756-.755-1.76-1.17-2.83-1.17-1.068 0-2.072.415-2.828 1.17l-3.772 3.774-1.718 1.718-2.038-1.323c-3.878-2.519-8.122-4.353-12.614-5.453l-2.287-.56V7c0-2.206-1.794-4-4-4h-5.445c-2.206 0-4 1.794-4 4v7.104l-2.391.495c-4.726.98-9.182 2.77-13.244 5.32l-2.026 1.27-1.62-1.62-.007-.005-.082-.082-3.838-3.84c-.755-.754-1.76-1.17-2.828-1.17-1.07 0-2.074.416-2.83 1.17l-3.837 3.84c-.756.755-1.172 1.76-1.172 2.828 0 1.069.416 2.073 1.172 2.829l3.838 3.838.021.021 1.69 1.69-1.27 2.025c-1.905 3.04-3.397 6.329-4.434 9.777l-.01.031-.01.032c-.363 1.119-.681 2.267-.944 3.412l-.534 2.33H7c-2.206 0-4 1.793-4 3.999v5.411c0 2.206 1.794 4 4 4h7.827l.534 2.33c1.054 4.595 2.9 8.941 5.485 12.918l1.325 2.038-1.719 1.719-3.4 3.398c-1.559 1.56-1.56 4.098 0 5.658l3.84 3.838c.755.756 1.76 1.172 2.828 1.172 1.069 0 2.073-.416 2.828-1.172l3.586-3.585 1.673-1.673 2.017 1.238c4.011 2.462 8.379 4.206 12.982 5.184l2.377.505V103c0 2.205 1.794 4 4 4h5.445m0 3h-5.445c-3.867 0-7-3.134-7-7v-5.298c-5.012-1.065-9.706-2.97-13.928-5.561l-3.585 3.585c-1.367 1.367-3.158 2.05-4.95 2.05-1.791 0-3.583-.683-4.95-2.05l-3.839-3.839c-2.733-2.733-2.733-7.165 0-9.9l3.4-3.399c-2.725-4.192-4.745-8.873-5.894-13.883H7c-3.866 0-7-3.133-7-7v-5.411c0-3.866 3.134-7 7-7h5.437c.286-1.244.625-2.467 1.015-3.668 1.1-3.655 2.688-7.192 4.766-10.507l-.02-.02-3.84-3.839c-2.733-2.733-2.734-7.166 0-9.9l3.838-3.838c1.367-1.367 3.159-2.05 4.95-2.05 1.792 0 3.584.683 4.95 2.05l3.839 3.839.018.017c4.428-2.78 9.254-4.685 14.23-5.716V7c0-3.866 3.133-7 7-7h5.445c3.865 0 7 3.134 7 7v5.016c4.731 1.158 9.312 3.109 13.535 5.85l3.773-3.773c1.367-1.367 3.158-2.05 4.95-2.05 1.792 0 3.583.683 4.95 2.05l3.838 3.84c2.734 2.733 2.734 7.165 0 9.899l-3.838 3.839c2.64 4.124 4.601 8.718 5.727 13.623H104c3.866 0 7 3.134 7 7v5.411c0 3.867-3.134 7-7 7h-5.437c-1.116 4.863-3.052 9.418-5.656 13.514l3.767 3.768c2.734 2.735 2.734 7.166 0 9.9l-3.838 3.838c-1.367 1.367-3.159 2.05-4.95 2.05-1.792 0-3.583-.683-4.95-2.05L79.13 91.92c-2.886 1.816-5.94 3.261-9.095 4.335-1.437.495-2.907.919-4.408 1.267V103c0 3.866-3.135 7-7 7z" transform="translate(68)"/>
    </g>
    <ellipse id="Ellipse_801" cx="24.5" cy="25" fill="#6e7580" rx="24.5" ry="25" transform="translate(99 30)"/>
    <path id="Rectangle_6862" d="M0 0H47V7H0z" class="cls-1" transform="translate(148 77)"/>
</svg>
