<svg xmlns="http://www.w3.org/2000/svg" id="outline-directions-car_1_" width="16" height="16" viewBox="0 0 16 16">
    <defs>
        <style>
            .cls-1{fill:#4c5057}
        </style>
    </defs>
    <path id="Path_4798" d="M13.613 5.673A1 1 0 0 0 12.667 5H5.333a1 1 0 0 0-.947.673L3 9.667V15a.669.669 0 0 0 .667.667h.667A.669.669 0 0 0 5 15v-.667h8V15a.669.669 0 0 0 .667.667h.667A.669.669 0 0 0 15 15V9.667zm-8.047.66h6.86l.72 2.073h-8.3zM13.667 13H4.333V9.667h9.333z" class="cls-1" transform="translate(-1 -1.667)"/>
    <ellipse id="Ellipse_723" cx="1" cy=".5" class="cls-1" rx="1" ry=".5" transform="translate(4 9)"/>
    <ellipse id="Ellipse_724" cx="1" cy=".5" class="cls-1" rx="1" ry=".5" transform="translate(10 9)"/>
    <path id="Rectangle_5789" fill="rgba(0,0,0,0)" d="M0 0H16V16H0z"/>
</svg>
