<svg xmlns="http://www.w3.org/2000/svg" width="50" height="50" viewBox="0 0 50 50">
    <defs>
        <style>
            .cls-1{fill:#3c74ef}
        </style>
    </defs>
    <g id="bx-check-shield" transform="translate(.207)">
        <path id="Path_5718" d="M40.429 12.185a2.074 2.074 0 0 0-1.139-1.652L22.663 2.219a2.078 2.078 0 0 0-1.86 0L4.175 10.533a2.083 2.083 0 0 0-1.137 1.652c-.023.222-2 22.378 17.851 31.205a2.051 2.051 0 0 0 1.688 0c19.849-8.827 17.874-30.981 17.851-31.205zM21.733 39.2C7.665 32.4 7 17.884 7.114 13.713L21.733 6.4l14.609 7.306c.077 4.136-.681 18.745-14.609 25.494z" class="cls-1" transform="translate(3.207 2.156)"/>
        <path id="Path_5719" d="M15 17.216l-4.768-4.766-2.939 2.939 7.7 7.7 11.866-11.857-2.939-2.939z" class="cls-1" transform="translate(7.865 8.943)"/>
        <path id="Rectangle_6112" fill="rgba(0,0,0,0)" d="M0 0H50V50H0z" transform="translate(-.207)"/>
    </g>
</svg>
