<svg xmlns="http://www.w3.org/2000/svg" id="content-settings-24-regular" width="24" height="24" viewBox="0 0 24 24">
    <defs>
        <style>
            .cls-1{fill:#4c5057}
        </style>
    </defs>
    <g id="Group_18844" transform="translate(2.999 3)">
        <path id="Path_5730" d="M17.935 3.005L17.75 3H6.25l-.184.005A3.25 3.25 0 0 0 3 6.25v11.684A3.25 3.25 0 0 0 6.25 21h5.772a6.471 6.471 0 0 1-.708-1.5H6.25l-.144-.006A1.75 1.75 0 0 1 4.5 17.75V8h15v3.313a6.468 6.468 0 0 1 1.5.71V6.066a3.25 3.25 0 0 0-3.06-3.06zM6.25 4.5h11.5a1.751 1.751 0 0 1 1.75 1.75v.25h-15v-.25A1.751 1.751 0 0 1 6.25 4.5z" class="cls-1" transform="translate(-2.999 -3)"/>
        <path id="Path_5731" d="M10.992 10.148a.75.75 0 0 0-.743-.648h-3.5l-.1.007A.75.75 0 0 0 6 10.25v7l.007.1a.75.75 0 0 0 .743.65h3.5l.1-.007a.75.75 0 0 0 .65-.743v-7l-.007-.1zM7.5 11h2v5.5h-2z" class="cls-1" transform="translate(-2.999 -3)"/>
        <path id="Path_5732" d="M17.249 9.5a.75.75 0 0 1 .1 1.493l-.1.007h-4.5a.75.75 0 0 1-.1-1.493l.1-.007z" class="cls-1" transform="translate(-2.999 -3)"/>
        <path id="Path_5733" d="M12.947 16.059l-.447-.43a5.513 5.513 0 0 1 .853-1.57l.6.178a2 2 0 0 0 2.511-1.45l.173-.715a5.176 5.176 0 0 1 1.723 0l.173.716a2 2 0 0 0 2.51 1.449l.6-.178a5.535 5.535 0 0 1 .852 1.57l-.447.43a2 2 0 0 0 0 2.882l.447.43a5.535 5.535 0 0 1-.852 1.57l-.6-.178a2 2 0 0 0-2.511 1.45l-.173.715a5.175 5.175 0 0 1-1.723 0l-.173-.716a2 2 0 0 0-2.51-1.449l-.6.178a5.544 5.544 0 0 1-.853-1.57l.447-.43a2 2 0 0 0 0-2.882zm6 1.441A1.451 1.451 0 1 0 17.5 19a1.476 1.476 0 0 0 1.449-1.5z" class="cls-1" transform="translate(-2.999 -3)"/>
    </g>
    <path id="Rectangle_6165" fill="rgba(0,0,0,0)" d="M0 0H24V24H0z"/>
</svg>
