<svg xmlns="http://www.w3.org/2000/svg" id="steering-wheel" width="24" height="24" viewBox="0 0 24 24">
    <defs>
        <style>
            .cls-1{fill:#c91e33}
        </style>
    </defs>
    <g id="Group_19935" transform="translate(11.124 12.357)">
        <g id="Group_19934">
            <path id="Path_5832" d="M242.731 268.323a.892.892 0 0 0-.813-.544.878.878 0 0 0-.8 1.212.892.892 0 0 0 .813.544.84.84 0 0 0 .329-.07.876.876 0 0 0 .471-1.142z" class="cls-1" transform="translate(-241.045 -267.779)"/>
        </g>
    </g>
    <g id="Group_19937">
        <g id="Group_19936">
            <path id="Path_5833" d="M12 0a12 12 0 1 0 12 12A12.014 12.014 0 0 0 12 0zM3.089 8.756A8.96 8.96 0 0 1 6.452 4.32a9.709 9.709 0 0 1 11.1 0 8.96 8.96 0 0 1 3.362 4.436l.212.62H2.877zm6.587 12.472a8.968 8.968 0 0 1-7.092-8.452l-.02-.582.573.105a8.692 8.692 0 0 1 7.1 8.467v.583zm3.129-6.028a2.059 2.059 0 0 1-.8.162 2.109 2.109 0 0 1-1.95-1.3A2.112 2.112 0 0 1 12 11.146a2.107 2.107 0 0 1 .808 4.055zm6.495 3.05a9 9 0 0 1-4.975 2.978l-.571.121v-.583a8.692 8.692 0 0 1 7.1-8.467l.573-.105-.02.582A8.973 8.973 0 0 1 19.3 18.25z" class="cls-1"/>
        </g>
    </g>
</svg>
