<svg xmlns="http://www.w3.org/2000/svg" width="16" height="16" viewBox="0 0 16 16">
    <g>
        <path fill="#11be9a" d="M8.79 15.524a.7.7 0 0 0 .654 0c5.473-2.94 5.862-8.685 5.857-10.318a.675.675 0 0 0-.407-.617l-5.5-2.436a.687.687 0 0 0-.555 0L3.378 4.59a.676.676 0 0 0-.4.609c-.028 1.625.3 7.382 5.812 10.325zM6.867 7.7l1.567 1.562 2.933-2.933.966.966-3.9 3.9L5.9 8.661z" transform="translate(-.17 -.448) translate(-.942 -.61)"/>
        <path fill="rgba(0,0,0,0)" d="M0 0H16V16H0z" transform="translate(-.17 -.448) translate(.17 .448)"/>
    </g>
</svg>
